<svg width="38" height="38" viewBox="0 0 38 38" fill="none" xmlns="http://www.w3.org/2000/svg">
<path id="Subtract" fill-rule="evenodd" clip-rule="evenodd" d="M37.9115 18.9336L29.0266 14.3773C28.802 13.0313 27.6319 12.0053 26.2221 12.0053C24.7064 12.0053 23.4677 13.1912 23.3834 14.6858L14.9349 21.6558C14.4228 21.1579 13.7238 20.8513 12.9531 20.8513C12.0366 20.8513 11.2214 21.2849 10.7014 21.9582L0.122783 16.7864C1.19914 7.33904 9.22039 0 18.9558 0C29.4173 0 37.8995 8.47481 37.9115 18.9336ZM10.1169 23.8986L0 18.9526V18.9558C0 29.4247 8.48678 37.9115 18.9558 37.9115C28.7132 37.9115 36.7487 30.5392 37.7959 21.0609L37.7711 21.1093L28.601 16.4067C28.093 17.1808 27.2173 17.692 26.2221 17.692C25.3636 17.692 24.594 17.3115 24.0726 16.71L15.7924 23.5412C15.7951 23.592 15.7965 23.6432 15.7965 23.6947C15.7965 25.265 14.5235 26.5381 12.9531 26.5381C11.4513 26.5381 10.2215 25.3738 10.1169 23.8986Z" fill="white"/>
</svg>
